<svg width="0" height="0" class="hidden">
    <symbol id="facebook" viewBox="0 0 11 19" fill="none" xmlns="http://www.w3.org/2000/svg">
        <path d="M9.43677 10.2686L9.93113 7.04722H6.84012V4.95676C6.84012 4.07546 7.27191 3.2164 8.65628 3.2164H10.0615V0.473736C10.0615 0.473736 8.7863 0.256104 7.56707 0.256104C5.02153 0.256104 3.35765 1.799 3.35765 4.59207V7.04722H0.528076V10.2686H3.35765V18.0561H6.84012V10.2686H9.43677Z" fill="currentColor"/>
    </symbol>
    <symbol id="instagram" viewBox="0 0 16 16" fill="none" xmlns="http://www.w3.org/2000/svg">
        <path d="M7.9628 4.07508C5.81286 4.07508 4.07871 5.80923 4.07871 7.95917C4.07871 10.1091 5.81286 11.8433 7.9628 11.8433C10.1127 11.8433 11.8469 10.1091 11.8469 7.95917C11.8469 5.80923 10.1127 4.07508 7.9628 4.07508ZM7.9628 10.4843C6.57345 10.4843 5.43763 9.3519 5.43763 7.95917C5.43763 6.56644 6.57007 5.43401 7.9628 5.43401C9.35553 5.43401 10.488 6.56644 10.488 7.95917C10.488 9.3519 9.35215 10.4843 7.9628 10.4843ZM12.9117 3.9162C12.9117 4.41988 12.5061 4.82215 12.0058 4.82215C11.5021 4.82215 11.0998 4.4165 11.0998 3.9162C11.0998 3.4159 11.5055 3.01025 12.0058 3.01025C12.5061 3.01025 12.9117 3.4159 12.9117 3.9162ZM15.4842 4.83567C15.4267 3.62211 15.1495 2.54714 14.2605 1.66147C13.3748 0.775804 12.2999 0.49861 11.0863 0.437763C9.83554 0.366774 6.08667 0.366774 4.83592 0.437763C3.62573 0.49523 2.55076 0.772423 1.66172 1.65809C0.772668 2.54376 0.498854 3.61873 0.438007 4.83229C0.367018 6.08305 0.367018 9.83192 0.438007 11.0827C0.495474 12.2962 0.772668 13.3712 1.66172 14.2569C2.55076 15.1425 3.62235 15.4197 4.83592 15.4806C6.08667 15.5516 9.83554 15.5516 11.0863 15.4806C12.2999 15.4231 13.3748 15.1459 14.2605 14.2569C15.1462 13.3712 15.4234 12.2962 15.4842 11.0827C15.5552 9.83192 15.5552 6.08643 15.4842 4.83567ZM13.8684 12.4247C13.6047 13.0873 13.0943 13.5977 12.4283 13.8647C11.4311 14.2603 9.06481 14.169 7.9628 14.169C6.86078 14.169 4.49112 14.2569 3.49728 13.8647C2.83472 13.6011 2.32428 13.0906 2.05722 12.4247C1.66172 11.4275 1.75299 9.06119 1.75299 7.95917C1.75299 6.85716 1.6651 4.48749 2.05722 3.49365C2.32089 2.83109 2.83134 2.32065 3.49728 2.0536C4.4945 1.65809 6.86078 1.74936 7.9628 1.74936C9.06481 1.74936 11.4345 1.66147 12.4283 2.0536C13.0909 2.31727 13.6013 2.82771 13.8684 3.49365C14.2639 4.49087 14.1726 6.85716 14.1726 7.95917C14.1726 9.06119 14.2639 11.4309 13.8684 12.4247Z" fill="currentColor"/>
    </symbol>
    <symbol id="twitter" viewBox="0 0 18 15" fill="none" xmlns="http://www.w3.org/2000/svg">
        <path d="M15.6055 3.58016C15.6165 3.7339 15.6165 3.88767 15.6165 4.04141C15.6165 8.73072 12.0473 14.1339 5.52399 14.1339C3.51427 14.1339 1.64734 13.5518 0.0769043 12.5415C0.362447 12.5744 0.63697 12.5854 0.9335 12.5854C2.59176 12.5854 4.11828 12.0254 5.33729 11.0699C3.77784 11.037 2.47098 10.0156 2.02071 8.60993C2.24037 8.64286 2.45999 8.66483 2.69064 8.66483C3.0091 8.66483 3.32761 8.62089 3.6241 8.54405C1.99877 8.21456 0.779725 6.78691 0.779725 5.06274V5.01883C1.25193 5.2824 1.80108 5.44712 2.38309 5.46906C1.42765 4.83209 0.801698 3.74488 0.801698 2.51489C0.801698 1.85598 0.977378 1.25197 1.28489 0.724827C3.03104 2.8773 5.65576 4.28298 8.59891 4.43675C8.54402 4.17318 8.51106 3.89866 8.51106 3.6241C8.51106 1.66928 10.0925 0.0769043 12.0583 0.0769043C13.0796 0.0769043 14.0021 0.505202 14.65 1.19707C15.4517 1.04333 16.2204 0.7468 16.9013 0.340475C16.6377 1.16415 16.0777 1.85601 15.3419 2.29526C16.0557 2.21843 16.7476 2.02071 17.3845 1.74618C16.9014 2.449 16.2974 3.07496 15.6055 3.58016Z" fill="currentColor"/>
    </symbol>
    <symbol id="linkedin" viewBox="0 0 20 18" fill="none" xmlns="http://www.w3.org/2000/svg">
        <path d="M4.93994 2.00002C4.93968 2.53046 4.72871 3.03906 4.35345 3.41394C3.97819 3.78883 3.46937 3.99929 2.93894 3.99902C2.40851 3.99876 1.89991 3.78779 1.52502 3.41253C1.15014 3.03727 0.939676 2.52846 0.939942 1.99802C0.940207 1.46759 1.15117 0.958988 1.52644 0.584103C1.9017 0.209218 2.41051 -0.00124153 2.94094 -0.000976312C3.47137 -0.000711096 3.97998 0.210257 4.35486 0.585517C4.72975 0.960777 4.94021 1.46959 4.93994 2.00002ZM4.99994 5.48002H0.999942V18H4.99994V5.48002ZM11.3199 5.48002H7.33994V18H11.2799V11.43C11.2799 7.77002 16.0499 7.43002 16.0499 11.43V18H19.9999V10.07C19.9999 3.90002 12.9399 4.13002 11.2799 7.16002L11.3199 5.48002Z" fill="currentColor"/>
    </symbol>
</svg>
